<?xml version="1.0" standalone="no"?>
<!DOCTYPE svg PUBLIC "-//W3C//DTD SVG 20010904//EN"
 "http://www.w3.org/TR/2001/REC-SVG-20010904/DTD/svg10.dtd">
<svg version="1.0" xmlns="http://www.w3.org/2000/svg"
 width="235.000000pt" height="235.000000pt" viewBox="0 0 235.000000 235.000000"
 preserveAspectRatio="xMidYMid meet">
<metadata>
Created by potrace 1.14, written by Peter Selinger 2001-2017
</metadata>
<g transform="translate(0.000000,235.000000) scale(0.100000,-0.100000)"
fill="#000000" stroke="none">
<path d="M740 2015 c-145 -38 -155 -119 -25 -203 22 -15 43 -25 48 -24 4 1 7
-3 7 -9 0 -5 5 -7 10 -4 6 3 10 2 10 -3 0 -5 26 -17 58 -27 73 -24 78 -29 58
-56 -9 -13 -16 -43 -16 -67 0 -38 -2 -43 -17 -37 -66 27 -139 38 -253 39 -188
1 -284 -19 -334 -69 -24 -25 -24 -408 1 -457 9 -18 19 -40 23 -48 4 -8 16 -19
28 -25 12 -5 22 -13 22 -17 0 -4 7 -5 15 -2 8 4 15 2 15 -4 0 -5 27 -22 60
-38 33 -15 60 -32 60 -36 0 -4 7 -8 15 -8 8 0 16 -3 16 -7 4 -25 3 -246 -1
-252 -3 -5 -25 -17 -50 -28 -134 -59 -169 -78 -173 -95 -6 -19 35 -57 41 -38
2 6 8 8 13 4 5 -3 9 0 9 5 0 6 3 10 8 9 4 -1 33 11 66 25 32 15 62 27 67 27 5
0 9 6 10 13 0 6 6 -3 13 -22 15 -43 49 -58 74 -33 10 10 24 16 31 14 14 -5 61
-50 61 -59 0 -3 -20 -30 -44 -60 -44 -53 -49 -77 -22 -95 11 -7 64 44 126 120
59 73 70 86 95 116 l25 28 0 -95 c0 -73 3 -97 16 -107 29 -25 45 8 47 99 0 44
4 81 8 81 4 0 18 -15 30 -33 13 -17 27 -33 31 -35 4 -2 8 -10 8 -18 0 -8 4
-14 9 -14 4 0 21 -19 37 -42 30 -45 93 -113 98 -107 26 31 25 49 -10 99 -35
51 -31 57 11 19 21 -18 82 -47 119 -56 34 -8 265 -10 278 -2 7 4 -1 13 -20 23
-48 25 -137 121 -170 184 -84 160 -95 359 -30 532 12 30 32 69 45 87 12 17 23
34 23 38 0 8 100 110 109 110 3 0 19 10 35 22 l28 23 -149 -3 c-144 -3 -152
-5 -214 -34 -77 -38 -113 -69 -168 -148 -101 -143 -125 -377 -57 -546 13 -32
20 -59 17 -59 -4 0 -22 19 -39 43 l-31 43 1 470 c0 258 4 477 9 486 16 31 41
49 58 43 26 -11 64 -18 98 -19 18 -1 33 -4 33 -8 0 -3 14 -5 30 -4 17 1 30 -3
30 -8 0 -6 5 -4 10 4 5 8 10 11 10 5 0 -6 37 -10 90 -10 50 0 90 3 90 7 0 4 7
5 15 2 8 -4 23 0 32 7 14 12 16 12 8 -1 -8 -13 -7 -13 8 -1 9 7 17 10 17 6 0
-4 6 -2 13 4 8 6 17 8 20 4 4 -3 7 -1 7 5 0 7 7 12 15 12 19 0 42 48 37 77 -2
12 -24 41 -50 63 -79 70 -228 130 -410 167 -98 19 -322 24 -382 8z m150 -1129
l0 -194 -61 -73 c-34 -41 -65 -75 -70 -77 -10 -4 -48 28 -61 53 -10 17 -9 18
4 8 11 -10 17 -10 26 -1 17 17 15 58 -3 59 -8 1 -19 3 -25 4 -5 1 -22 3 -37 4
l-28 1 2 107 c1 60 2 116 2 126 1 9 8 17 16 17 8 0 15 5 15 10 0 6 5 10 11 10
6 0 24 9 40 21 16 11 29 17 29 14 0 -4 12 3 26 14 15 11 30 18 35 15 5 -3 9
-1 9 3 0 5 9 14 21 21 17 11 20 11 14 0 -3 -7 1 -4 9 6 9 11 16 26 16 33 0 7
2 13 5 13 3 0 5 -87 5 -194z m-379 150 c21 -2 33 -8 35 -19 3 -21 -14 -22 -54
-1 -32 16 -55 38 -28 28 8 -3 29 -7 47 -8z m149 -10 c0 5 11 10 24 10 30 0 25
-11 -13 -31 -33 -16 -41 -12 -34 16 5 16 8 18 14 7 5 -7 9 -8 9 -2z"/>
<path d="M1626 1903 c-44 -7 -81 -15 -83 -17 -2 -2 12 -20 31 -41 76 -83 49
-156 -71 -195 -24 -7 -44 -16 -44 -19 -6 -28 -4 -188 3 -197 5 -7 46 -10 107
-9 62 1 98 -3 94 -8 -4 -6 -1 -7 7 -2 20 13 103 13 119 0 11 -7 13 -7 8 2 -5
7 0 9 13 6 11 -3 20 -8 20 -12 0 -3 12 -7 26 -8 15 0 30 -7 35 -15 5 -7 9 -9
9 -4 0 4 11 1 25 -8 14 -9 30 -14 34 -11 5 3 12 -1 14 -7 4 -10 6 -10 6 0 1 6
9 12 19 12 10 0 28 7 40 16 12 8 22 12 22 7 0 -4 7 3 16 15 13 19 16 57 16
225 l0 202 -29 22 c-62 50 -282 73 -437 46z"/>
<path d="M1645 1378 c-188 -61 -323 -299 -301 -531 15 -166 63 -273 173 -383
12 -13 23 -20 23 -17 0 4 11 -4 25 -17 14 -13 25 -20 25 -17 0 4 11 0 25 -9
13 -8 28 -13 33 -10 6 3 15 -1 22 -10 11 -12 15 -12 21 -2 7 10 9 10 9 -2 0
-13 1 -13 10 0 5 8 10 10 10 4 0 -10 15 -10 95 1 11 1 21 4 23 5 1 1 5 3 10 5
50 14 62 18 62 25 0 5 9 11 20 15 32 10 108 91 142 151 154 274 62 659 -186
775 -83 39 -158 44 -241 17z"/>
</g>
</svg>
